# xmcd
# 
# Track frame offsets:
#     150
#     13067
#     28140
#     65807
#     81560
#     92662
#     109114
#     134967
# 
# Disc length: 2218
# 
# Revision: 8
# Processed by: cddbd v1.5.2PL0 Copyright (c) Steve Scherf et al.
# Submitted via: fre:ac v1.0.17
# 
DISCID=7608a808
DTITLE=Alice Cooper - Killer
DYEAR=1971
DGENRE=Rock
TTITLE0=Under My Wheels
TTITLE1=Be My Lover
TTITLE2=Halo of Flies
TTITLE3=Desperado
TTITLE4=You Drive Me Nervous
TTITLE5=Yeah, Yeah, Yeah
TTITLE6=Dead Babies
TTITLE7=Killer
EXTD=
EXTT0=
EXTT1=
EXTT2=
EXTT3=
EXTT4=
EXTT5=
EXTT6=
EXTT7=
PLAYORDER=
